<?xml version="1.0" standalone="no"?>
<!DOCTYPE svg PUBLIC "-//W3C//DTD SVG 20010904//EN"
 "http://www.w3.org/TR/2001/REC-SVG-20010904/DTD/svg10.dtd">
<svg version="1.0" xmlns="http://www.w3.org/2000/svg"
 width="482.000000pt" height="355.000000pt" viewBox="0 0 482.000000 355.000000"
 preserveAspectRatio="xMidYMid meet">

<g transform="translate(0.000000,355.000000) scale(0.100000,-0.100000)"
fill="#2c3e50" stroke="none">
<path d="M2160 3184 c-159 -14 -359 -68 -490 -134 -107 -54 -239 -151 -329
-241 -90 -90 -187 -222 -241 -329 -44 -87 -98 -251 -116 -353 -21 -119 -21
-323 0 -444 66 -371 293 -697 618 -885 375 -217 829 -232 1213 -40 39 19 82
43 97 53 14 11 32 19 40 19 7 0 141 -128 296 -285 156 -157 286 -285 290 -285
4 0 86 78 181 174 153 153 173 177 161 191 -7 9 -136 138 -286 288 -151 150
-274 277 -274 284 0 6 16 38 35 71 183 306 221 723 99 1064 -156 432 -531 752
-978 832 -88 16 -244 25 -316 20z m283 -395 c111 -24 254 -90 348 -160 381
-282 474 -831 209 -1228 -172 -256 -445 -401 -755 -401 -246 0 -463 88 -636
260 -174 172 -257 364 -266 620 -4 121 -2 145 21 235 90 352 350 602 707 680
99 21 263 19 372 -6z"/>
</g>
</svg>
