<?xml version="1.0" standalone="no"?>
<!DOCTYPE svg PUBLIC "-//W3C//DTD SVG 20010904//EN"
 "http://www.w3.org/TR/2001/REC-SVG-20010904/DTD/svg10.dtd">
<svg version="1.0" xmlns="http://www.w3.org/2000/svg"
 width="256.000000pt" height="256.000000pt" viewBox="0 0 256.000000 256.000000"
 preserveAspectRatio="xMidYMid meet">

<g transform="translate(0.000000,256.000000) scale(0.100000,-0.100000)"
fill="#cc0000" stroke="none">
<path d="M550 2330 c-19 -19 -20 -33 -20 -227 l0 -208 -58 -30 c-72 -37 -169
-134 -205 -206 -90 -179 -61 -389 74 -544 17 -19 30 -37 28 -39 -2 -1 -30 -20
-61 -40 -91 -59 -182 -165 -233 -270 -58 -118 -75 -207 -75 -385 0 -133 1
-141 22 -155 20 -14 101 -16 675 -16 645 0 653 0 674 21 19 19 20 30 17 160
l-3 139 568 0 c554 0 567 0 587 20 20 20 20 33 20 890 0 857 0 870 -20 890
-20 20 -33 20 -995 20 -962 0 -975 0 -995 -20z m1900 -890 l0 -800 -542 2
-541 3 -10 30 c-5 17 -23 61 -40 98 l-31 68 152 152 c103 103 152 159 152 174
0 23 -34 53 -59 53 -8 0 -81 -66 -162 -146 l-147 -146 -59 49 c-33 27 -77 60
-99 73 -21 13 -41 25 -42 26 -2 1 19 32 46 68 68 88 94 159 100 273 3 74 0
105 -16 160 -62 203 -251 343 -462 343 l-50 0 0 160 0 160 905 0 905 0 0 -800z
m-1597 336 c109 -53 183 -152 208 -279 30 -148 -63 -322 -209 -394 -78 -38
-203 -44 -285 -13 -73 28 -145 85 -184 146 -129 202 -48 457 175 551 49 20 70
23 148 20 74 -2 100 -8 147 -31z m-293 -926 c97 -153 121 -177 159 -153 9 5
58 75 108 154 105 163 101 160 188 104 70 -44 127 -101 175 -176 64 -99 81
-164 87 -321 l6 -138 -587 0 -586 0 0 113 c0 183 45 306 156 426 50 53 170
141 194 141 3 0 48 -68 100 -150z m210 112 c0 -1 -17 -30 -39 -63 l-38 -61
-37 60 c-20 33 -36 61 -36 63 0 2 34 4 75 4 41 0 75 -1 75 -3z"/>
<path d="M1350 2010 c-24 -24 -25 -38 -4 -68 l15 -22 343 0 c319 0 344 1 359
18 23 26 21 58 -5 76 -19 14 -70 16 -355 16 -320 0 -334 -1 -353 -20z"/>
<path d="M1350 1690 c-24 -24 -25 -38 -4 -68 l15 -22 445 0 c288 0 452 4 465
10 27 15 25 64 -3 84 -20 14 -80 16 -460 16 -425 0 -439 -1 -458 -20z"/>
<path d="M1350 1370 c-24 -24 -25 -38 -4 -68 l15 -22 445 0 c288 0 452 4 465
10 27 15 25 64 -3 84 -20 14 -80 16 -460 16 -425 0 -439 -1 -458 -20z"/>
</g>
</svg>
