<?xml version="1.0" standalone="no"?>
<!DOCTYPE svg PUBLIC "-//W3C//DTD SVG 20010904//EN"
 "http://www.w3.org/TR/2001/REC-SVG-20010904/DTD/svg10.dtd">
<svg version="1.0" xmlns="http://www.w3.org/2000/svg"
 width="1127.000000pt" height="1280.000000pt" viewBox="0 0 1127.000000 1280.000000"
 preserveAspectRatio="xMidYMid meet">
<g transform="translate(0.000000,1280.000000) scale(0.100000,-0.100000)"
fill="#cc0000" stroke="none">
<path d="M3265 12779 c-373 -57 -757 -197 -1210 -441 -917 -494 -1496 -1032
-1591 -1478 -17 -83 -18 -209 0 -280 10 -42 201 -540 393 -1027 3 -7 9 -13 13
-13 5 0 51 48 102 107 487 562 1056 1025 1693 1378 588 326 1225 553 1884 671
74 13 136 26 139 29 3 2 -155 204 -351 447 -388 483 -407 503 -548 558 -87 33
-277 71 -353 69 -28 -1 -105 -10 -171 -20z"/>
<path d="M7665 12780 c-167 -32 -282 -83 -371 -167 -49 -47 -719 -882 -712
-888 3 -3 65 -16 139 -29 480 -86 924 -222 1379 -421 839 -368 1584 -919 2198
-1628 51 -59 97 -107 102 -107 9 0 -3 -30 217 535 97 248 182 475 189 505 18
71 17 197 0 280 -95 446 -674 984 -1591 1478 -461 248 -846 387 -1220 442
-167 24 -199 24 -330 0z"/>
<path d="M5235 11249 c-1367 -104 -2616 -677 -3575 -1639 -453 -454 -793 -929
-1079 -1508 -303 -616 -491 -1291 -550 -1982 -30 -346 -33 -417 -28 -555 33
-890 214 -1648 566 -2370 288 -591 639 -1083 1103 -1545 930 -927 2147 -1498
3441 -1615 94 -8 222 -20 283 -25 141 -13 337 -13 478 0 61 5 189 17 283 25
1300 117 2518 691 3452 1626 936 936 1512 2161 1626 3458 8 97 20 223 25 281
13 133 13 340 1 467 -6 54 -15 161 -21 238 -106 1318 -685 2562 -1635 3510
-442 441 -904 774 -1470 1059 -659 331 -1353 519 -2125 576 -157 12 -616 11
-775 -1z m746 -749 c757 -59 1457 -275 2099 -649 952 -553 1695 -1420 2095
-2443 449 -1146 446 -2419 -7 -3563 -403 -1017 -1146 -1877 -2098 -2430 -1281
-744 -2843 -860 -4225 -313 -1247 494 -2249 1496 -2743 2743 -448 1130 -456
2399 -21 3526 250 650 619 1218 1109 1709 831 830 1906 1326 3080 1419 154 12
556 13 711 1z"/>
<path d="M5530 9711 c-117 -38 -212 -130 -253 -243 -9 -25 -13 -447 -17 -1743
l-5 -1710 -1715 -5 -1715 -5 -66 -32 c-79 -39 -140 -102 -177 -181 -24 -50
-27 -70 -27 -157 0 -83 4 -109 23 -149 31 -67 82 -127 139 -164 103 -66 -29
-63 2089 -60 l1919 3 58 27 c80 38 158 115 193 191 l29 62 3 1915 c2 1425 0
1929 -8 1970 -24 112 -94 201 -202 256 -45 24 -67 28 -148 31 -52 1 -106 -1
-120 -6z"/>
</g>
</svg>
